{"title":"Blade.Runner.2049.2017.DK.SWESUB.1080p.WEB-DL.H264.AC3-Stiffy","magnet":"magnet:?xt=urn:btih:2399a08d4705fe8bac8dcdeeee55f6d74373306b&dn=Blade.Runner.2049.2017.DK.SWESUB.1080p.WEB-DL.H264.AC3-Stiffy&tr=udp%3A%2F%2Ftracker.leechers-paradise.org%3A6969&tr=udp%3A%2F%2Fzer0day.ch%3A1337&tr=udp%3A%2F%2Fopen.demonii.com%3A1337&tr=udp%3A%2F%2Ftracker.coppersurfer.tk%3A6969&tr=udp%3A%2F%2Fexodus.desync.com%3A6969","uploader":"Alias J.T ","categoryP":"video","categoryS":"hd___movies","size":"6065773548","seeders":"61","leechers":"47","description":"Blade.Runner.2049.2017.DK.SWESUB.1080p.WEB-DL.H264.AC3-Stiffy\r\n\r\n <a href=\"\nhttp://www.imdb.com/title/tt1856101/\" rel=\"nofollow\" target=\"_NEW\">\nhttp://www.imdb.com/title/tt1856101/</a>\r\nA young blade runner&apos;s discovery of a long-buried secret leads him to track down former blade runner Rick Deckard, who&apos;s been missing for thirty years. \r\n\r\n\r\n\r\nMediainfo:\r\n\r\nFormat : Matroska\r\nFormat version : Version 4 / Version 2\r\nFile size : 5.65 GiB\r\nDuration : 2h 43mn\r\nOverall bit rate : 4 948 Kbps\r\nSource : EVO\r\nEncoded date : UTC 2017-12-31 15:01:09\r\nWriting application : mkvmerge v18.0.0 (&apos;Apricity&apos;) 64-bit\r\nWriting library : libebml v1.3.5 + libmatroska v1.4.8\r\n\r\nVideo\r\nID : 3\r\nFormat : AVC\r\nFormat/Info : Advanced Video Codec\r\nFormat profile : <a href=\"/cdn-cgi/l/email-protection\" class=\"__cf_email__\" data-cfemail=\"c68eafa1ae868af2\">[email&#xA0;protected]</a>\r\nFormat settings, CABAC : Yes\r\nFormat settings, ReFrames : 5 frames\r\nCodec ID : V_MPEG4/ISO/AVC\r\nDuration : 2h 43mn\r\nBit rate : 4 562 Kbps\r\nWidth : 1 920 pixels\r\nHeight : 796 pixels\r\nDisplay aspect ratio : 2.40:1\r\nFrame rate mode : Constant\r\nFrame rate : 23.976 (23976/1000) fps\r\nColor space : YUV\r\nChroma subsampling : 4:2:0\r\nBit depth : 8 bits\r\nScan type : Progressive\r\nBits/(Pixel*Frame) : 0.125\r\nStream size : 5.21 GiB (92%)\r\nLanguage : English\r\nDefault : Yes\r\nForced : No\r\nColor range : Limited\r\nColor primaries : BT.709\r\nTransfer characteristics : BT.709\r\nMatrix coefficients : BT.709\r\n\r\nAudio\r\nID : 2\r\nFormat : AC-3\r\nFormat/Info : Audio Coding 3\r\nMode extension : CM (complete main)\r\nFormat settings, Endianness : Big\r\nCodec ID : A_AC3\r\nDuration : 2h 43mn\r\nBit rate mode : Constant\r\nBit rate : 384 Kbps\r\nChannel(s) : 6 channels\r\nChannel positions : Front: L C R, Side: L R, LFE\r\nSampling rate : 48.0 KHz\r\nFrame rate : 31.250 fps (1536 spf)\r\nCompression mode : Lossy\r\nStream size : 449 MiB (8%)\r\nLanguage : English\r\nDefault : Yes\r\nForced : No\r\n\r\nText #1\r\nID : 1\r\nFormat : UTF-8\r\nCodec ID : S_TEXT/UTF8\r\nCodec ID/Info : UTF-8 Plain Text\r\nDuration : 2h 31mn\r\nBit rate : 26 bps\r\nCount of elements : 1057\r\nStream size : 29.3 KiB (0%)\r\nLanguage : Swedish\r\nDefault : Yes\r\nForced : No\r\n\r\nText #2\r\nID : 4\r\nFormat : UTF-8\r\nCodec ID : S_TEXT/UTF8\r\nCodec ID/Info : UTF-8 Plain Text\r\nDuration : 2h 43mn\r\nBit rate : 25 bps\r\nCount of elements : 919\r\nStream size : 30.0 KiB (0%)\r\nLanguage : Danish\r\nDefault : No\r\nForced : No","last_updated":"2018-01-01T12:04:51.487Z","parsed":{"xt":"urn:btih:2399a08d4705fe8bac8dcdeeee55f6d74373306b","dn":"Blade.Runner.2049.2017.DK.SWESUB.1080p.WEB-DL.H264.AC3-Stiffy","tr":["udp://exodus.desync.com:6969","udp://open.demonii.com:1337","udp://tracker.coppersurfer.tk:6969","udp://tracker.leechers-paradise.org:6969","udp://zer0day.ch:1337"],"infoHash":"2399a08d4705fe8bac8dcdeeee55f6d74373306b","infoHashBuffer":{"type":"Buffer","data":[35,153,160,141,71,5,254,139,172,141,205,238,238,85,246,215,67,115,48,107]},"name":"Blade.Runner.2049.2017.DK.SWESUB.1080p.WEB-DL.H264.AC3-Stiffy","announce":["udp://exodus.desync.com:6969","udp://open.demonii.com:1337","udp://tracker.coppersurfer.tk:6969","udp://tracker.leechers-paradise.org:6969","udp://zer0day.ch:1337"],"urlList":[]}}